<?xml version="1.0" standalone="no"?>
<!DOCTYPE svg PUBLIC "-//W3C//DTD SVG 20010904//EN"
 "http://www.w3.org/TR/2001/REC-SVG-20010904/DTD/svg10.dtd">
<svg version="1.0" xmlns="http://www.w3.org/2000/svg"
 width="768.000000pt" height="1024.000000pt" viewBox="0 0 768.000000 1024.000000"
 preserveAspectRatio="xMidYMid meet">

<g transform="translate(0.000000,1024.000000) scale(0.100000,-0.100000)"
fill="#000000" stroke="none">
<path d="M2740 7858 l0 -1098 1095 0 1095 0 0 1098 0 1097 -1095 0 -1095 0 0
-1097z"/>
<path d="M2740 5115 l0 -1095 1095 0 1095 0 0 1095 0 1095 -1095 0 -1095 0 0
-1095z"/>
<path d="M2742 2373 l3 -1098 1090 0 1090 0 3 1098 2 1097 -1095 0 -1095 0 2
-1097z"/>
</g>
</svg>
